<svg xmlns="http://www.w3.org/2000/svg" viewBox="0 0 64 64"><rect width="64" height="64" rx="15" fill="#0b1020"/><defs><linearGradient id="g" x1="0" y1="0" x2="1" y2="0"><stop offset="0" stop-color="#38bdf8"/><stop offset="0.45" stop-color="#a78bfa"/><stop offset="1" stop-color="#e879f9"/></linearGradient></defs><g fill="url(#g)"><rect x="12.26" y="17.30" width="4.2" height="4.2"/><rect x="16.46" y="17.30" width="4.2" height="4.2"/><rect x="20.66" y="17.30" width="4.2" height="4.2"/><rect x="8.06" y="21.50" width="4.2" height="4.2"/><rect x="24.86" y="21.50" width="4.2" height="4.2"/><rect x="8.06" y="25.70" width="4.2" height="4.2"/><rect x="8.06" y="29.90" width="4.2" height="4.2"/><rect x="8.06" y="34.10" width="4.2" height="4.2"/><rect x="8.06" y="38.30" width="4.2" height="4.2"/><rect x="24.86" y="38.30" width="4.2" height="4.2"/><rect x="12.26" y="42.50" width="4.2" height="4.2"/><rect x="16.46" y="42.50" width="4.2" height="4.2"/><rect x="20.66" y="42.50" width="4.2" height="4.2"/><rect x="34.94" y="17.30" width="4.2" height="4.2"/><rect x="51.74" y="17.30" width="4.2" height="4.2"/><rect x="34.94" y="21.50" width="4.2" height="4.2"/><rect x="51.74" y="21.50" width="4.2" height="4.2"/><rect x="39.14" y="25.70" width="4.2" height="4.2"/><rect x="47.54" y="25.70" width="4.2" height="4.2"/><rect x="43.34" y="29.90" width="4.2" height="4.2"/><rect x="39.14" y="34.10" width="4.2" height="4.2"/><rect x="47.54" y="34.10" width="4.2" height="4.2"/><rect x="34.94" y="38.30" width="4.2" height="4.2"/><rect x="51.74" y="38.30" width="4.2" height="4.2"/><rect x="34.94" y="42.50" width="4.2" height="4.2"/><rect x="51.74" y="42.50" width="4.2" height="4.2"/></g></svg>